# xmcd CD database file
#
# Track frame offsets:
#	150
#	24552
#	38671
#	58684
#	80453
#	98160
#	119692
#	129388
#	153474
#	168835
#
# Disc length: 2643 seconds
#
# Revision: 0
# Processed by: cddbd v1.5.2PL0 Copyright (c) Steve Scherf et al.
# Submitted via: CDex 1.70beta2
#
DISCID=790a510a
DTITLE=Eve Selis - 10 Songs On Six Strings
DYEAR=2009
DGENRE=Country
TTITLE0=Rubber and Glue
TTITLE1=Witness To Your Life
TTITLE2=Cry
TTITLE3=Sink or Swim
TTITLE4=Maybe That's the Miracle
TTITLE5=Drinking
TTITLE6=Needle and the Damage Done
TTITLE7=Silent House
TTITLE8=You Go Your Way
TTITLE9=One Day at a Time
EXTD=YEAR: 2009
EXTT0=
EXTT1=
EXTT2=
EXTT3=
EXTT4=
EXTT5=
EXTT6=
EXTT7=
EXTT8=
EXTT9=
PLAYORDER=
